<svg width="483" height="296" viewBox="0 0 483 296" fill="none" xmlns="http://www.w3.org/2000/svg">
<path fill-rule="evenodd" clip-rule="evenodd" d="M242.138 32.5948L241.287 62.5776C242.635 63.1446 245.756 64.4488 247.458 65.1293C249.16 65.8098 249.444 63.7117 249.373 62.5776C249.209 57.6704 249.108 50.2468 248.998 42.1093C248.821 29.0893 248.62 14.242 248.096 4.95114C245.883 -11.3799 243.202 16.5757 242.138 32.5948ZM139.581 115.951L127.452 137.003L245.33 78.7385C272.069 92.9147 330.951 124.202 352.569 135.94C376.74 147.167 357.959 128.71 345.547 118.078L243.841 66.4052L139.581 115.951ZM0 180.807L1.06388 176.129L112.133 150.612V159.118L0 180.807ZM389.592 165.497V158.055L482.149 179.957L483 184.21L389.592 165.497ZM212.563 74.0603L198.094 48.1178C193.98 39.8956 187.71 26.173 195.541 37.0603C203.03 48.6282 214.548 65.9799 219.371 73.2098L212.563 74.0603ZM295.212 48.1178L280.744 74.0603L273.935 73.2098C278.758 65.9799 290.276 48.6282 297.766 37.0603C305.596 26.173 299.326 39.8956 295.212 48.1178ZM117.239 167.411C128.445 163.3 152.943 154.227 156.177 152.526C160.22 150.399 200.434 131.261 233.84 160.394C235.117 163.158 236.606 166.986 234.478 171.451C233.711 171.196 232.403 170.129 230.588 168.65C224.857 163.976 214.078 155.188 199.37 154.865C197.704 154.969 196.266 155.05 194.99 155.122C185.838 155.639 184.955 155.689 167.029 160.394C162.962 161.461 159.458 162.465 156.288 163.373C143.037 167.17 135.611 169.298 117.239 167.411ZM325.127 152.526C328.361 154.227 352.859 163.3 364.065 167.411C345.694 169.298 338.267 167.17 325.016 163.373C321.846 162.465 318.342 161.461 314.276 160.394C296.35 155.689 295.466 155.639 286.315 155.122C285.038 155.05 283.601 154.969 281.934 154.865C267.226 155.188 256.448 163.976 250.716 168.65C248.902 170.129 247.593 171.196 246.826 171.451C244.698 166.986 246.188 163.158 247.464 160.394C280.87 131.261 321.085 150.399 325.127 152.526ZM144.475 169.446C145.886 169.049 146.93 168.754 147.493 168.593C147.926 168.469 148.56 168.266 149.374 168.005L149.376 168.005C160.496 164.447 205.308 150.11 233.627 177.405L233.714 177.575C235.106 180.304 236.591 183.216 234.281 187.612C233.43 187.355 231.98 186.283 229.969 184.797C223.616 180.1 211.669 171.268 195.368 170.944C193.52 171.048 191.927 171.13 190.513 171.202H190.512C180.368 171.721 179.389 171.771 159.52 176.5C136.172 182.056 130.558 183.371 105.324 181.02C115.909 177.499 136.305 171.749 144.466 169.449L144.475 169.446ZM236.606 133.115C237.174 139.423 238.479 152.551 239.159 154.592C240.011 157.144 242.564 156.08 243.415 154.592C244.096 153.401 245.401 139.778 245.968 133.115H236.606ZM336.838 169.449C335.423 169.05 334.376 168.755 333.812 168.593C333.378 168.469 332.744 168.266 331.929 168.005C320.808 164.447 275.997 150.11 247.677 177.405L247.59 177.575C246.199 180.304 244.713 183.216 247.023 187.612C247.874 187.355 249.324 186.283 251.335 184.797C257.688 180.1 269.635 171.268 285.937 170.944C287.784 171.048 289.377 171.13 290.792 171.202C300.936 171.721 301.915 171.771 321.784 176.5C345.132 182.056 350.746 183.371 375.981 181.02C365.395 177.499 344.998 171.749 336.838 169.449Z" fill="black"/>
<path d="M87.6987 291.748C87.3294 291.748 87.0209 291.624 86.7731 291.375C86.5253 291.121 86.3966 290.815 86.3869 290.456C86.382 290.097 86.5107 289.797 86.7731 289.558C87.0355 289.314 87.344 289.192 87.6987 289.192C88.0582 289.192 88.3692 289.316 88.6315 289.565C88.8939 289.814 89.0202 290.111 89.0105 290.456C89.0057 290.695 88.9425 290.913 88.821 291.109C88.7044 291.305 88.5465 291.461 88.3473 291.576C88.153 291.691 87.9368 291.748 87.6987 291.748Z" fill="black"/>
<path d="M93.3505 291.748C92.9812 291.748 92.6727 291.624 92.4249 291.375C92.1771 291.121 92.0484 290.815 92.0387 290.456C92.0338 290.097 92.1626 289.797 92.4249 289.558C92.6873 289.314 92.9958 289.192 93.3505 289.192C93.71 289.192 94.021 289.316 94.2834 289.565C94.5457 289.814 94.6721 290.111 94.6623 290.456C94.6575 290.695 94.5943 290.913 94.4729 291.109C94.3562 291.305 94.1983 291.461 93.9991 291.576C93.8048 291.691 93.5886 291.748 93.3505 291.748Z" fill="black"/>
<path d="M99.0023 291.748C98.6331 291.748 98.3245 291.624 98.0768 291.375C97.829 291.121 97.7002 290.815 97.6905 290.456C97.6856 290.097 97.8144 289.797 98.0768 289.558C98.3391 289.314 98.6476 289.192 99.0023 289.192C99.3619 289.192 99.6728 289.316 99.9352 289.565C100.198 289.814 100.324 290.111 100.314 290.456C100.309 290.695 100.246 290.913 100.125 291.109C100.008 291.305 99.8502 291.461 99.651 291.576C99.4566 291.691 99.2404 291.748 99.0023 291.748Z" fill="black"/>
<path d="M103.197 291.633L105.062 280.602H106.724L106.432 282.268H106.549C106.841 281.723 107.285 281.28 107.883 280.94C108.48 280.6 109.114 280.43 109.785 280.43C109.916 280.43 110.074 280.432 110.259 280.437C110.443 280.437 110.587 280.444 110.689 280.459L110.397 282.182C110.339 282.168 110.208 282.146 110.004 282.118C109.799 282.084 109.581 282.067 109.348 282.067C108.803 282.067 108.301 282.18 107.839 282.405C107.377 282.625 106.991 282.932 106.68 283.324C106.369 283.712 106.17 284.155 106.083 284.653L104.917 291.633H103.197Z" fill="black"/>
<path d="M114.138 291.892C113.428 291.892 112.806 291.76 112.272 291.497C111.737 291.229 111.341 290.843 111.084 290.341C110.826 289.833 110.756 289.22 110.873 288.502C110.984 287.87 111.201 287.358 111.521 286.965C111.842 286.568 112.231 286.257 112.687 286.032C113.149 285.802 113.644 285.632 114.174 285.522C114.708 285.407 115.241 285.318 115.77 285.256C116.46 285.17 117.021 285.103 117.454 285.055C117.886 285.007 118.212 284.928 118.43 284.818C118.649 284.708 118.782 284.519 118.831 284.251V284.193C118.948 283.489 118.853 282.941 118.547 282.548C118.241 282.151 117.694 281.952 116.907 281.952C116.091 281.952 115.408 282.13 114.859 282.484C114.31 282.838 113.904 283.216 113.642 283.619L112.126 283.044C112.525 282.374 113.001 281.852 113.555 281.478C114.108 281.1 114.689 280.837 115.296 280.688C115.904 280.535 116.489 280.459 117.053 280.459C117.412 280.459 117.818 280.502 118.27 280.588C118.722 280.669 119.144 280.839 119.538 281.098C119.936 281.356 120.235 281.747 120.434 282.268C120.638 282.79 120.668 283.489 120.522 284.365L119.297 291.633H117.578L117.84 290.14H117.752C117.597 290.379 117.359 290.635 117.038 290.908C116.722 291.181 116.322 291.413 115.836 291.605C115.355 291.796 114.789 291.892 114.138 291.892ZM114.633 290.369C115.313 290.369 115.909 290.238 116.419 289.974C116.934 289.711 117.347 289.371 117.658 288.955C117.974 288.538 118.17 288.1 118.248 287.64L118.51 286.089C118.423 286.175 118.25 286.254 117.993 286.326C117.735 286.393 117.444 286.453 117.118 286.506C116.798 286.554 116.484 286.597 116.178 286.635C115.877 286.668 115.634 286.697 115.449 286.721C114.993 286.779 114.558 286.872 114.145 287.001C113.737 287.126 113.392 287.315 113.11 287.569C112.833 287.818 112.661 288.157 112.593 288.588C112.491 289.177 112.634 289.623 113.023 289.924C113.411 290.221 113.948 290.369 114.633 290.369Z" fill="black"/>
<path d="M122.437 291.633L124.303 280.602H126.022L124.157 291.633H122.437ZM125.687 278.735C125.352 278.735 125.063 278.622 124.82 278.397C124.582 278.172 124.463 277.902 124.463 277.586C124.463 277.27 124.582 276.999 124.82 276.774C125.063 276.549 125.352 276.437 125.687 276.437C126.022 276.437 126.309 276.549 126.547 276.774C126.79 276.999 126.912 277.27 126.912 277.586C126.912 277.902 126.79 278.172 126.547 278.397C126.309 278.622 126.022 278.735 125.687 278.735Z" fill="black"/>
<path d="M136.694 283.073L135.061 283.504C135.003 283.245 134.901 282.996 134.755 282.757C134.614 282.513 134.396 282.314 134.099 282.161C133.808 282.003 133.409 281.924 132.904 281.924C132.219 281.924 131.624 282.079 131.119 282.39C130.613 282.697 130.324 283.087 130.251 283.561C130.178 283.978 130.276 284.31 130.543 284.559C130.81 284.808 131.257 285.012 131.884 285.17L133.487 285.572C134.449 285.816 135.134 286.182 135.542 286.671C135.955 287.154 136.096 287.784 135.965 288.56C135.858 289.192 135.579 289.757 135.127 290.255C134.675 290.752 134.097 291.145 133.392 291.432C132.688 291.72 131.903 291.863 131.038 291.863C129.887 291.863 128.978 291.619 128.313 291.131C127.647 290.638 127.292 289.924 127.249 288.991L128.969 288.588C129.012 289.177 129.226 289.623 129.61 289.924C129.999 290.221 130.543 290.369 131.242 290.369C132.044 290.369 132.712 290.202 133.247 289.867C133.781 289.527 134.085 289.12 134.158 288.646C134.231 288.258 134.153 287.935 133.924 287.676C133.701 287.418 133.312 287.224 132.758 287.095L130.98 286.664C129.989 286.419 129.294 286.046 128.896 285.543C128.502 285.041 128.371 284.409 128.502 283.647C128.609 283.025 128.881 282.474 129.318 281.995C129.761 281.517 130.314 281.141 130.98 280.868C131.651 280.595 132.379 280.459 133.166 280.459C134.274 280.459 135.103 280.698 135.652 281.177C136.201 281.651 136.548 282.283 136.694 283.073Z" fill="black"/>
<path d="M138.029 291.633L139.895 280.602H141.615L139.749 291.633H138.029ZM141.28 278.735C140.945 278.735 140.655 278.622 140.413 278.397C140.174 278.172 140.055 277.902 140.055 277.586C140.055 277.27 140.174 276.999 140.413 276.774C140.655 276.549 140.945 276.437 141.28 276.437C141.615 276.437 141.902 276.549 142.14 276.774C142.383 276.999 142.504 277.27 142.504 277.586C142.504 277.902 142.383 278.172 142.14 278.397C141.902 278.622 141.615 278.735 141.28 278.735Z" fill="black"/>
<path d="M145.727 284.997L144.62 291.633H142.9L144.765 280.602H146.427L146.135 282.326H146.281C146.631 281.766 147.105 281.316 147.702 280.976C148.3 280.631 149.021 280.459 149.867 280.459C150.615 280.459 151.247 280.612 151.762 280.918C152.282 281.22 152.648 281.679 152.862 282.297C153.081 282.91 153.112 283.686 152.957 284.624L151.762 291.633H150.042L151.208 284.739C151.354 283.877 151.239 283.202 150.865 282.714C150.496 282.225 149.911 281.981 149.109 281.981C148.555 281.981 148.042 282.098 147.571 282.333C147.105 282.568 146.709 282.91 146.383 283.36C146.063 283.81 145.844 284.356 145.727 284.997Z" fill="black"/>
<path d="M158.724 296C157.888 296 157.188 295.895 156.625 295.684C156.061 295.478 155.609 295.205 155.269 294.865C154.929 294.53 154.671 294.171 154.497 293.788L156.042 292.84C156.158 293.041 156.309 293.271 156.493 293.529C156.678 293.793 156.957 294.02 157.332 294.212C157.711 294.408 158.243 294.506 158.928 294.506C159.826 294.506 160.614 294.291 161.289 293.86C161.964 293.429 162.382 292.754 162.542 291.835L162.892 289.594H162.747C162.591 289.795 162.375 290.044 162.098 290.341C161.821 290.633 161.449 290.894 160.983 291.124C160.516 291.349 159.919 291.461 159.19 291.461C158.281 291.461 157.504 291.25 156.858 290.829C156.212 290.408 155.748 289.795 155.466 288.991C155.189 288.186 155.148 287.209 155.342 286.06C155.531 284.93 155.896 283.947 156.435 283.109C156.979 282.266 157.65 281.615 158.447 281.155C159.243 280.691 160.113 280.459 161.056 280.459C161.785 280.459 162.343 280.578 162.732 280.818C163.125 281.052 163.412 281.32 163.592 281.622C163.772 281.919 163.908 282.163 164 282.355H164.175L164.466 280.602H166.128L164.233 291.949C164.073 292.897 163.726 293.668 163.191 294.262C162.657 294.86 162.001 295.299 161.223 295.576C160.446 295.859 159.613 296 158.724 296ZM159.627 289.939C160.312 289.939 160.922 289.783 161.457 289.472C161.996 289.161 162.443 288.713 162.798 288.129C163.152 287.545 163.398 286.846 163.534 286.032C163.67 285.237 163.66 284.535 163.504 283.927C163.349 283.319 163.055 282.843 162.623 282.498C162.195 282.153 161.634 281.981 160.939 281.981C160.205 281.981 159.571 282.163 159.037 282.527C158.507 282.891 158.077 283.379 157.747 283.992C157.417 284.605 157.188 285.285 157.062 286.032C156.936 286.798 156.94 287.475 157.076 288.064C157.213 288.648 157.489 289.108 157.907 289.443C158.33 289.773 158.903 289.939 159.627 289.939Z" fill="black"/>
<path d="M176.448 291.892C175.739 291.892 175.117 291.76 174.582 291.497C174.048 291.229 173.652 290.843 173.394 290.341C173.137 289.833 173.066 289.22 173.183 288.502C173.295 287.87 173.511 287.358 173.832 286.965C174.152 286.568 174.541 286.257 174.998 286.032C175.459 285.802 175.955 285.632 176.484 285.522C177.019 285.407 177.551 285.318 178.08 285.256C178.77 285.17 179.332 285.103 179.764 285.055C180.196 285.007 180.522 284.928 180.741 284.818C180.959 284.708 181.093 284.519 181.141 284.251V284.193C181.258 283.489 181.163 282.941 180.857 282.548C180.551 282.151 180.004 281.952 179.217 281.952C178.401 281.952 177.718 282.13 177.169 282.484C176.62 282.838 176.215 283.216 175.952 283.619L174.436 283.044C174.835 282.374 175.311 281.852 175.865 281.478C176.419 281.1 176.999 280.837 177.607 280.688C178.214 280.535 178.799 280.459 179.363 280.459C179.723 280.459 180.128 280.502 180.58 280.588C181.032 280.669 181.455 280.839 181.848 281.098C182.247 281.356 182.546 281.747 182.745 282.268C182.949 282.79 182.978 283.489 182.832 284.365L181.608 291.633H179.888L180.15 290.14H180.063C179.907 290.379 179.669 290.635 179.349 290.908C179.033 291.181 178.632 291.413 178.146 291.605C177.665 291.796 177.099 291.892 176.448 291.892ZM176.943 290.369C177.624 290.369 178.219 290.238 178.729 289.974C179.244 289.711 179.657 289.371 179.968 288.955C180.284 288.538 180.481 288.1 180.558 287.64L180.821 286.089C180.733 286.175 180.561 286.254 180.303 286.326C180.046 286.393 179.754 286.453 179.429 286.506C179.108 286.554 178.795 286.597 178.489 286.635C178.187 286.668 177.944 286.697 177.76 286.721C177.303 286.779 176.868 286.872 176.455 287.001C176.047 287.126 175.702 287.315 175.42 287.569C175.143 287.818 174.971 288.157 174.903 288.588C174.801 289.177 174.944 289.623 175.333 289.924C175.722 290.221 176.258 290.369 176.943 290.369Z" fill="black"/>
<path d="M189.819 295.77L192.399 280.602H194.061L193.77 282.355H193.974C194.129 282.163 194.343 281.919 194.615 281.622C194.892 281.32 195.264 281.052 195.73 280.818C196.201 280.578 196.801 280.459 197.53 280.459C198.473 280.459 199.262 280.691 199.899 281.155C200.535 281.62 200.985 282.278 201.247 283.13C201.509 283.982 201.543 284.988 201.349 286.147C201.155 287.315 200.783 288.327 200.234 289.184C199.685 290.037 199.014 290.697 198.223 291.167C197.431 291.631 196.568 291.863 195.635 291.863C194.916 291.863 194.36 291.746 193.966 291.511C193.573 291.272 193.286 291.001 193.106 290.7C192.927 290.393 192.788 290.14 192.691 289.939H192.545L191.554 295.77H189.819ZM193.157 286.118C193.021 286.951 193.021 287.686 193.157 288.323C193.298 288.955 193.578 289.45 193.996 289.809C194.418 290.164 194.975 290.341 195.664 290.341C196.384 290.341 197.013 290.154 197.552 289.781C198.096 289.402 198.543 288.895 198.893 288.258C199.248 287.616 199.493 286.903 199.629 286.118C199.755 285.342 199.751 284.643 199.615 284.021C199.478 283.394 199.202 282.898 198.784 282.534C198.366 282.165 197.793 281.981 197.064 281.981C196.364 281.981 195.745 282.156 195.205 282.505C194.671 282.85 194.229 283.334 193.879 283.956C193.534 284.574 193.293 285.294 193.157 286.118Z" fill="black"/>
<path d="M207.71 291.863C206.636 291.863 205.749 291.629 205.05 291.159C204.35 290.685 203.862 290.025 203.585 289.177C203.308 288.325 203.264 287.334 203.453 286.204C203.643 285.074 204.019 284.078 204.583 283.216C205.147 282.35 205.849 281.675 206.689 281.191C207.53 280.703 208.453 280.459 209.459 280.459C210.042 280.459 210.603 280.554 211.142 280.746C211.682 280.937 212.148 281.249 212.542 281.679C212.935 282.106 213.21 282.671 213.365 283.374C213.521 284.078 213.511 284.945 213.336 285.974L213.219 286.692H204.59L204.824 285.227H211.703C211.815 284.605 211.786 284.049 211.616 283.561C211.451 283.073 211.162 282.687 210.749 282.405C210.341 282.122 209.823 281.981 209.196 281.981C208.55 281.981 207.948 282.153 207.389 282.498C206.83 282.838 206.364 283.269 205.99 283.791C205.616 284.308 205.382 284.835 205.29 285.371L205.086 286.635C204.94 287.549 204.962 288.277 205.152 288.818C205.346 289.359 205.684 289.749 206.165 289.989C206.646 290.223 207.248 290.341 207.972 290.341C208.434 290.341 208.859 290.278 209.247 290.154C209.636 290.025 209.983 289.833 210.29 289.579C210.596 289.321 210.853 289 211.062 288.617L212.636 289.077C212.369 289.632 211.993 290.12 211.507 290.542C211.026 290.958 210.462 291.284 209.816 291.519C209.175 291.748 208.472 291.863 207.71 291.863Z" fill="black"/>
<path d="M219.651 291.863C218.621 291.863 217.759 291.621 217.064 291.138C216.369 290.654 215.878 289.977 215.592 289.105C215.31 288.234 215.264 287.219 215.453 286.06C215.638 284.93 216.005 283.947 216.554 283.109C217.107 282.266 217.795 281.615 218.616 281.155C219.442 280.691 220.351 280.459 221.342 280.459C222.372 280.459 223.232 280.703 223.922 281.191C224.617 281.675 225.107 282.355 225.394 283.231C225.681 284.102 225.729 285.122 225.54 286.29C225.355 287.411 224.983 288.39 224.425 289.228C223.871 290.061 223.183 290.709 222.362 291.174C221.546 291.633 220.642 291.863 219.651 291.863ZM219.68 290.341C220.467 290.341 221.15 290.142 221.728 289.745C222.311 289.347 222.782 288.823 223.142 288.172C223.506 287.521 223.752 286.817 223.878 286.06C223.995 285.342 223.99 284.674 223.863 284.057C223.737 283.434 223.467 282.934 223.054 282.556C222.641 282.173 222.061 281.981 221.313 281.981C220.526 281.981 219.838 282.182 219.25 282.584C218.667 282.987 218.196 283.516 217.836 284.172C217.477 284.828 217.236 285.534 217.115 286.29C216.998 287.008 217.001 287.676 217.122 288.294C217.248 288.907 217.518 289.402 217.931 289.781C218.349 290.154 218.932 290.341 219.68 290.341Z" fill="black"/>
<path d="M226.576 295.77L229.156 280.602H230.818L230.526 282.355H230.73C230.886 282.163 231.1 281.919 231.372 281.622C231.649 281.32 232.02 281.052 232.487 280.818C232.958 280.578 233.558 280.459 234.287 280.459C235.23 280.459 236.019 280.691 236.656 281.155C237.292 281.62 237.742 282.278 238.004 283.13C238.266 283.982 238.3 284.988 238.106 286.147C237.912 287.315 237.54 288.327 236.991 289.184C236.442 290.037 235.771 290.697 234.979 291.167C234.187 291.631 233.325 291.863 232.392 291.863C231.673 291.863 231.117 291.746 230.723 291.511C230.33 291.272 230.043 291.001 229.863 290.7C229.683 290.393 229.545 290.14 229.448 289.939H229.302L228.311 295.77H226.576ZM229.914 286.118C229.778 286.951 229.778 287.686 229.914 288.323C230.055 288.955 230.335 289.45 230.752 289.809C231.175 290.164 231.731 290.341 232.421 290.341C233.14 290.341 233.77 290.154 234.309 289.781C234.853 289.402 235.3 288.895 235.65 288.258C236.005 287.616 236.25 286.903 236.386 286.118C236.512 285.342 236.507 284.643 236.371 284.021C236.235 283.394 235.958 282.898 235.541 282.534C235.123 282.165 234.549 281.981 233.821 281.981C233.121 281.981 232.501 282.156 231.962 282.505C231.428 282.85 230.986 283.334 230.636 283.956C230.291 284.574 230.05 285.294 229.914 286.118Z" fill="black"/>
<path d="M244 276.925L241.522 291.633H239.802L242.28 276.925H244Z" fill="black"/>
<path d="M249.337 291.863C248.263 291.863 247.376 291.629 246.677 291.159C245.977 290.685 245.489 290.025 245.212 289.177C244.935 288.325 244.891 287.334 245.081 286.204C245.27 285.074 245.647 284.078 246.21 283.216C246.774 282.35 247.476 281.675 248.316 281.191C249.157 280.703 250.08 280.459 251.086 280.459C251.669 280.459 252.23 280.554 252.769 280.746C253.309 280.937 253.775 281.249 254.169 281.679C254.562 282.106 254.837 282.671 254.992 283.374C255.148 284.078 255.138 284.945 254.963 285.974L254.846 286.692H246.217L246.451 285.227H253.33C253.442 284.605 253.413 284.049 253.243 283.561C253.078 283.073 252.789 282.687 252.376 282.405C251.968 282.122 251.45 281.981 250.823 281.981C250.177 281.981 249.575 282.153 249.016 282.498C248.457 282.838 247.991 283.269 247.617 283.791C247.243 284.308 247.009 284.835 246.917 285.371L246.713 286.635C246.567 287.549 246.589 288.277 246.779 288.818C246.973 289.359 247.311 289.749 247.792 289.989C248.273 290.223 248.875 290.341 249.599 290.341C250.061 290.341 250.486 290.278 250.874 290.154C251.263 290.025 251.611 289.833 251.917 289.579C252.223 289.321 252.48 289 252.689 288.617L254.263 289.077C253.996 289.632 253.62 290.12 253.134 290.542C252.653 290.958 252.089 291.284 251.443 291.519C250.802 291.748 250.099 291.863 249.337 291.863Z" fill="black"/>
<path d="M270.242 287.123L271.35 280.602H273.07L271.204 291.633H269.484L269.805 289.766H269.688C269.339 290.326 268.85 290.803 268.223 291.195C267.597 291.583 266.861 291.777 266.015 291.777C265.316 291.777 264.718 291.626 264.222 291.325C263.732 291.018 263.382 290.559 263.173 289.946C262.969 289.328 262.945 288.55 263.1 287.612L264.295 280.602H266.015L264.849 287.497C264.718 288.301 264.842 288.943 265.221 289.421C265.6 289.9 266.146 290.14 266.861 290.14C267.288 290.14 267.74 290.032 268.216 289.816C268.697 289.601 269.125 289.271 269.499 288.825C269.878 288.38 270.126 287.813 270.242 287.123Z" fill="black"/>
<path d="M277.182 284.997L276.074 291.633H274.354L276.22 280.602H277.882L277.59 282.326H277.736C278.086 281.766 278.56 281.316 279.157 280.976C279.755 280.631 280.476 280.459 281.322 280.459C282.07 280.459 282.702 280.612 283.217 280.918C283.736 281.22 284.103 281.679 284.317 282.297C284.536 282.91 284.567 283.686 284.412 284.624L283.217 291.633H281.497L282.663 284.739C282.808 283.877 282.694 283.202 282.32 282.714C281.951 282.225 281.365 281.981 280.564 281.981C280.01 281.981 279.497 282.098 279.026 282.333C278.56 282.568 278.164 282.91 277.838 283.36C277.517 283.81 277.299 284.356 277.182 284.997Z" fill="black"/>
<path d="M293.094 280.602L292.86 282.039H287.059L287.292 280.602H293.094ZM289.421 277.959H291.14L289.362 288.473C289.284 288.952 289.297 289.311 289.399 289.551C289.506 289.785 289.666 289.943 289.88 290.025C290.098 290.101 290.334 290.14 290.587 290.14C290.776 290.14 290.932 290.13 291.053 290.111C291.174 290.087 291.272 290.068 291.345 290.053L291.461 291.576C291.33 291.619 291.153 291.662 290.929 291.705C290.71 291.753 290.441 291.777 290.12 291.777C289.634 291.777 289.178 291.674 288.75 291.468C288.322 291.262 287.994 290.949 287.766 290.527C287.538 290.106 287.477 289.575 287.584 288.933L289.421 277.959Z" fill="black"/>
<path d="M298.315 291.863C297.285 291.863 296.423 291.621 295.728 291.138C295.033 290.654 294.543 289.977 294.256 289.105C293.974 288.234 293.928 287.219 294.118 286.06C294.302 284.93 294.669 283.947 295.218 283.109C295.772 282.266 296.459 281.615 297.281 281.155C298.107 280.691 299.015 280.459 300.006 280.459C301.036 280.459 301.896 280.703 302.586 281.191C303.281 281.675 303.772 282.355 304.058 283.231C304.345 284.102 304.394 285.122 304.204 286.29C304.02 287.411 303.648 288.39 303.089 289.228C302.535 290.061 301.848 290.709 301.027 291.174C300.21 291.633 299.307 291.863 298.315 291.863ZM298.345 290.341C299.132 290.341 299.814 290.142 300.393 289.745C300.976 289.347 301.447 288.823 301.806 288.172C302.171 287.521 302.416 286.817 302.542 286.06C302.659 285.342 302.654 284.674 302.528 284.057C302.402 283.434 302.132 282.934 301.719 282.556C301.306 282.173 300.725 281.981 299.977 281.981C299.19 281.981 298.503 282.182 297.915 282.584C297.332 282.987 296.86 283.516 296.501 284.172C296.141 284.828 295.901 285.534 295.779 286.29C295.663 287.008 295.665 287.676 295.787 288.294C295.913 288.907 296.183 289.402 296.596 289.781C297.013 290.154 297.596 290.341 298.345 290.341Z" fill="black"/>
<path d="M314.54 284.997L313.433 291.633H311.713L314.19 276.925H315.91L315.007 282.326H315.152C315.502 281.751 315.969 281.296 316.552 280.961C317.14 280.626 317.878 280.459 318.767 280.459C319.525 280.459 320.164 280.609 320.684 280.911C321.209 281.208 321.578 281.665 321.792 282.283C322.01 282.896 322.042 283.676 321.887 284.624L320.691 291.633H318.971L320.137 284.739C320.283 283.863 320.164 283.185 319.78 282.706C319.401 282.223 318.811 281.981 318.009 281.981C317.446 281.981 316.921 282.098 316.435 282.333C315.954 282.568 315.546 282.91 315.211 283.36C314.88 283.81 314.657 284.356 314.54 284.997Z" fill="black"/>
<path d="M323.838 291.633L325.704 280.602H327.424L325.558 291.633H323.838ZM327.088 278.735C326.753 278.735 326.464 278.622 326.221 278.397C325.983 278.172 325.864 277.902 325.864 277.586C325.864 277.27 325.983 276.999 326.221 276.774C326.464 276.549 326.753 276.437 327.088 276.437C327.424 276.437 327.71 276.549 327.948 276.774C328.191 276.999 328.313 277.27 328.313 277.586C328.313 277.902 328.191 278.172 327.948 278.397C327.71 278.622 327.424 278.735 327.088 278.735Z" fill="black"/>
<path d="M338.095 283.073L336.462 283.504C336.404 283.245 336.302 282.996 336.156 282.757C336.016 282.513 335.797 282.314 335.5 282.161C335.209 282.003 334.811 281.924 334.305 281.924C333.62 281.924 333.025 282.079 332.52 282.39C332.014 282.697 331.725 283.087 331.652 283.561C331.58 283.978 331.677 284.31 331.944 284.559C332.211 284.808 332.658 285.012 333.285 285.17L334.888 285.572C335.85 285.816 336.535 286.182 336.943 286.671C337.356 287.154 337.497 287.784 337.366 288.56C337.259 289.192 336.98 289.757 336.528 290.255C336.076 290.752 335.498 291.145 334.794 291.432C334.089 291.72 333.304 291.863 332.44 291.863C331.288 291.863 330.379 291.619 329.714 291.131C329.048 290.638 328.694 289.924 328.65 288.991L330.37 288.588C330.413 289.177 330.627 289.623 331.011 289.924C331.4 290.221 331.944 290.369 332.644 290.369C333.445 290.369 334.113 290.202 334.648 289.867C335.182 289.527 335.486 289.12 335.559 288.646C335.632 288.258 335.554 287.935 335.326 287.676C335.102 287.418 334.713 287.224 334.16 287.095L332.381 286.664C331.39 286.419 330.695 286.046 330.297 285.543C329.903 285.041 329.772 284.409 329.903 283.647C330.01 283.025 330.282 282.474 330.72 281.995C331.162 281.517 331.716 281.141 332.381 280.868C333.052 280.595 333.781 280.459 334.568 280.459C335.675 280.459 336.504 280.698 337.053 281.177C337.602 281.651 337.949 282.283 338.095 283.073Z" fill="black"/>
<path d="M348.03 284.997L346.923 291.633H345.203L347.068 280.602H348.73L348.438 282.326H348.584C348.934 281.766 349.408 281.316 350.005 280.976C350.603 280.631 351.324 280.459 352.17 280.459C352.918 280.459 353.55 280.612 354.065 280.918C354.585 281.22 354.951 281.679 355.165 282.297C355.384 282.91 355.415 283.686 355.26 284.624L354.065 291.633H352.345L353.511 284.739C353.657 283.877 353.542 283.202 353.168 282.714C352.799 282.225 352.214 281.981 351.412 281.981C350.858 281.981 350.345 282.098 349.874 282.333C349.408 282.568 349.012 282.91 348.686 283.36C348.366 283.81 348.147 284.356 348.03 284.997Z" fill="black"/>
<path d="M360.473 291.892C359.763 291.892 359.141 291.76 358.607 291.497C358.073 291.229 357.677 290.843 357.419 290.341C357.162 289.833 357.091 289.22 357.208 288.502C357.319 287.87 357.536 287.358 357.856 286.965C358.177 286.568 358.566 286.257 359.022 286.032C359.484 285.802 359.98 285.632 360.509 285.522C361.044 285.407 361.576 285.318 362.105 285.256C362.795 285.17 363.356 285.103 363.789 285.055C364.221 285.007 364.547 284.928 364.765 284.818C364.984 284.708 365.118 284.519 365.166 284.251V284.193C365.283 283.489 365.188 282.941 364.882 282.548C364.576 282.151 364.029 281.952 363.242 281.952C362.426 281.952 361.743 282.13 361.194 282.484C360.645 282.838 360.24 283.216 359.977 283.619L358.461 283.044C358.86 282.374 359.336 281.852 359.89 281.478C360.444 281.1 361.024 280.837 361.632 280.688C362.239 280.535 362.824 280.459 363.388 280.459C363.747 280.459 364.153 280.502 364.605 280.588C365.057 280.669 365.48 280.839 365.873 281.098C366.272 281.356 366.57 281.747 366.77 282.268C366.974 282.79 367.003 283.489 366.857 284.365L365.633 291.633H363.913L364.175 290.14H364.088C363.932 290.379 363.694 290.635 363.373 290.908C363.057 291.181 362.657 291.413 362.171 291.605C361.69 291.796 361.124 291.892 360.473 291.892ZM360.968 290.369C361.648 290.369 362.244 290.238 362.754 289.974C363.269 289.711 363.682 289.371 363.993 288.955C364.309 288.538 364.505 288.1 364.583 287.64L364.845 286.089C364.758 286.175 364.586 286.254 364.328 286.326C364.071 286.393 363.779 286.453 363.453 286.506C363.133 286.554 362.819 286.597 362.513 286.635C362.212 286.668 361.969 286.697 361.785 286.721C361.328 286.779 360.893 286.872 360.48 287.001C360.072 287.126 359.727 287.315 359.445 287.569C359.168 287.818 358.996 288.157 358.928 288.588C358.826 289.177 358.969 289.623 359.358 289.924C359.746 290.221 360.283 290.369 360.968 290.369Z" fill="black"/>
<path d="M368.772 291.633L370.638 280.602H372.299L372.008 282.326H372.154C372.489 281.737 372.943 281.28 373.516 280.954C374.095 280.624 374.748 280.459 375.477 280.459C376.206 280.459 376.791 280.624 377.233 280.954C377.675 281.28 377.984 281.737 378.159 282.326H378.275C378.654 281.751 379.16 281.296 379.791 280.961C380.428 280.626 381.147 280.459 381.949 280.459C382.94 280.459 383.702 280.767 384.237 281.385C384.776 282.003 384.937 282.958 384.718 284.251L383.464 291.633H381.744L382.998 284.251C383.129 283.432 382.998 282.85 382.604 282.505C382.216 282.156 381.715 281.981 381.103 281.981C380.316 281.981 379.667 282.213 379.157 282.678C378.647 283.142 378.334 283.733 378.217 284.452L376.993 291.633H375.244L376.526 284.078C376.628 283.446 376.507 282.939 376.162 282.556C375.817 282.173 375.316 281.981 374.661 281.981C374.214 281.981 373.776 282.101 373.349 282.34C372.921 282.575 372.554 282.9 372.248 283.317C371.942 283.729 371.745 284.203 371.658 284.739L370.492 291.633H368.772Z" fill="black"/>
<path d="M391.273 291.863C390.2 291.863 389.313 291.629 388.613 291.159C387.914 290.685 387.425 290.025 387.148 289.177C386.872 288.325 386.828 287.334 387.017 286.204C387.207 285.074 387.583 284.078 388.147 283.216C388.711 282.35 389.413 281.675 390.253 281.191C391.094 280.703 392.017 280.459 393.023 280.459C393.606 280.459 394.167 280.554 394.706 280.746C395.245 280.937 395.712 281.249 396.105 281.679C396.499 282.106 396.773 282.671 396.929 283.374C397.084 284.078 397.075 284.945 396.9 285.974L396.783 286.692H388.154L388.387 285.227H395.267C395.379 284.605 395.35 284.049 395.18 283.561C395.015 283.073 394.726 282.687 394.313 282.405C393.904 282.122 393.387 281.981 392.76 281.981C392.114 281.981 391.512 282.153 390.953 282.498C390.394 282.838 389.928 283.269 389.554 283.791C389.179 284.308 388.946 284.835 388.854 285.371L388.65 286.635C388.504 287.549 388.526 288.277 388.715 288.818C388.91 289.359 389.247 289.749 389.728 289.989C390.209 290.223 390.812 290.341 391.536 290.341C391.997 290.341 392.423 290.278 392.811 290.154C393.2 290.025 393.547 289.833 393.853 289.579C394.16 289.321 394.417 289 394.626 288.617L396.2 289.077C395.933 289.632 395.556 290.12 395.071 290.542C394.59 290.958 394.026 291.284 393.38 291.519C392.738 291.748 392.036 291.863 391.273 291.863Z" fill="black"/>
<path d="M1.05948 215.004C1.56312 215.022 2.29253 215.057 3.24771 215.109C5.92221 215.248 7.73705 215.318 8.69223 215.318C9.89055 215.318 12.044 215.239 15.1527 215.083C15.8474 215.048 16.3771 215.022 16.7418 215.004V217.354H16.1426C14.6491 217.354 13.6331 217.72 13.0947 218.451C12.5737 219.182 12.3132 221.131 12.3132 224.299V231.192C13.7721 231.244 15.2135 231.288 16.6376 231.322C18.0617 231.34 19.4684 231.349 20.8578 231.349C22.1603 231.349 23.6278 231.34 25.2603 231.322C26.8928 231.288 28.6902 231.244 30.6527 231.192V224.299C30.6527 221.131 30.3922 219.182 29.8712 218.451C29.3502 217.72 28.3342 217.354 26.8233 217.354H26.2241V215.004C27.8914 215.109 29.3936 215.187 30.7308 215.239C32.0681 215.292 33.2577 215.318 34.2997 215.318C35.2549 215.318 37.0698 215.248 39.7443 215.109C40.6821 215.057 41.4115 215.022 41.9325 215.004V217.328C41.8283 217.328 41.7067 217.328 41.5678 217.328C41.4462 217.311 41.2812 217.302 41.0728 217.302C39.7009 217.302 38.7717 217.755 38.2854 218.66C37.7992 219.547 37.556 221.532 37.556 224.612C37.556 225.135 37.5647 226.075 37.5821 227.432C37.5995 228.79 37.6081 229.904 37.6081 230.774V236.283C37.6081 237.327 37.5995 238.642 37.5821 240.226C37.5647 241.792 37.556 242.845 37.556 243.385C37.556 246.117 37.8079 247.902 38.3115 248.737C38.8151 249.555 39.7703 249.964 41.177 249.964C41.4375 249.964 41.6286 249.964 41.7501 249.964C41.8891 249.947 42.0107 249.929 42.1149 249.912V252.262C41.5244 252.227 40.6908 252.183 39.614 252.131C36.9221 252.009 35.1334 251.948 34.2476 251.948C33.2577 251.948 32.0681 251.974 30.6787 252.027C29.2894 252.079 27.7003 252.157 25.9115 252.262V249.912C26.0505 249.912 26.2241 249.921 26.4325 249.938C26.6409 249.955 26.7886 249.964 26.8754 249.964C28.3689 249.964 29.3675 249.572 29.8712 248.789C30.3922 248.006 30.6527 245.987 30.6527 242.732V235.213C28.8986 235.178 27.2835 235.152 25.8073 235.134C24.3311 235.117 22.8723 235.108 21.4309 235.108C18.9648 235.108 17.0978 235.117 15.83 235.134C14.5796 235.152 13.4074 235.178 12.3132 235.213V242.732C12.3132 245.987 12.5651 248.006 13.0687 248.789C13.5897 249.572 14.597 249.964 16.0905 249.964C16.1774 249.964 16.325 249.955 16.5334 249.938C16.7592 249.921 16.9328 249.912 17.0544 249.912V252.262C15.2482 252.157 13.6505 252.079 12.2611 252.027C10.8718 251.974 9.69952 251.948 8.74434 251.948C7.84126 251.948 6.05246 252.009 3.37796 252.131C2.30121 252.183 1.45892 252.227 0.851074 252.262V249.912C0.972643 249.929 1.10289 249.947 1.24183 249.964C1.38076 249.964 1.58917 249.964 1.86704 249.964C3.25639 249.964 4.1942 249.512 4.68048 248.606C5.18412 247.684 5.43594 245.708 5.43594 242.68C5.43594 242.158 5.42726 241.192 5.40989 239.782C5.39252 238.372 5.38384 237.223 5.38384 236.335V230.774C5.38384 229.799 5.39252 228.564 5.40989 227.067C5.42726 225.57 5.43594 224.56 5.43594 224.038C5.43594 221.253 5.18412 219.434 4.68048 218.581C4.17684 217.728 3.25639 217.302 1.91914 217.302C1.69337 217.302 1.5197 217.311 1.39813 217.328C1.27656 217.328 1.16368 217.328 1.05948 217.328V215.004Z" fill="black"/>
<path d="M70.119 238.346L59.256 238.372C57.3977 238.372 56.0084 238.389 55.0879 238.424C54.1675 238.441 53.3165 238.494 52.535 238.581C52.535 241.696 53.2991 244.142 54.8274 245.917C56.3731 247.693 58.5005 248.58 61.2098 248.58C62.5123 248.58 63.7974 248.38 65.0652 247.98C66.3504 247.562 67.6442 246.935 68.9467 246.1L70.119 248.345C68.1044 249.947 66.1246 251.148 64.1795 251.948C62.2344 252.732 60.3067 253.123 58.3963 253.123C54.7666 253.123 51.7882 251.914 49.4611 249.494C47.1339 247.057 45.9703 243.933 45.9703 240.121C45.9703 235.979 47.2294 232.523 49.7476 229.756C52.2658 226.971 55.3571 225.579 59.0215 225.579C62.3039 225.579 64.961 226.745 66.993 229.077C69.0249 231.392 70.0669 234.482 70.119 238.346ZM63.9451 235.16C63.5804 233.124 62.9117 231.54 61.9392 230.409C60.984 229.26 59.8378 228.685 58.5005 228.685C56.9028 228.685 55.5829 229.303 54.5409 230.539C53.4989 231.775 52.8476 233.507 52.5871 235.735H54.2283C56.3644 235.735 58.2227 235.691 59.8031 235.604C61.3834 235.5 62.7641 235.352 63.9451 235.16Z" fill="black"/>
<path d="M83.8996 225.37C83.7781 227.006 83.6826 228.407 83.6131 229.573C83.5436 230.739 83.5002 231.758 83.4828 232.628C85.0285 230.034 86.3571 228.259 87.4685 227.302C88.58 226.327 89.7957 225.84 91.1156 225.84C92.036 225.84 92.8349 226.179 93.5122 226.858C94.1895 227.537 94.5282 228.355 94.5282 229.312C94.5282 230.2 94.3111 230.905 93.8769 231.427C93.4601 231.949 92.8957 232.21 92.1837 232.21C91.7842 232.21 91.2285 232.071 90.5164 231.792C89.8044 231.497 89.24 231.349 88.8232 231.349C88.0416 231.349 87.2601 231.644 86.4786 232.236C85.6971 232.828 84.7854 233.82 83.7433 235.213C83.7433 235.77 83.7347 236.623 83.7173 237.771C83.6999 238.92 83.6912 239.79 83.6912 240.382V243.28C83.6912 246.291 83.9604 248.189 84.4988 248.972C85.0372 249.738 86.0879 250.121 87.6509 250.121C87.7551 250.121 87.9201 250.112 88.1459 250.095C88.389 250.077 88.58 250.069 88.719 250.069V252.262H88.6408C84.768 252.018 82.2498 251.896 81.0862 251.896C80.1658 251.896 77.8299 252.009 74.0787 252.236H73.5576V250.016H74.261C75.5635 250.016 76.4492 249.694 76.9181 249.05C77.387 248.406 77.6215 246.875 77.6215 244.455V235.63C77.6215 233.02 77.4565 231.409 77.1265 230.8C76.8139 230.174 76.2148 229.86 75.3291 229.86C75.2249 229.86 75.0338 229.886 74.756 229.939C74.4781 229.973 74.2523 230 74.0787 230.017L73.8702 227.928C75.5201 227.667 77.17 227.328 78.8198 226.91C80.4697 226.492 82.1629 225.979 83.8996 225.37Z" fill="black"/>
<path d="M103.359 212.42L105.73 214.038C106.32 214.439 106.754 214.857 107.032 215.292C107.328 215.727 107.475 216.197 107.475 216.702C107.475 217.224 107.362 217.676 107.137 218.059C106.911 218.425 106.511 218.808 105.938 219.208L103.411 220.931L101.067 219.365C100.442 218.964 99.9727 218.547 99.6601 218.111C99.3649 217.676 99.2173 217.224 99.2173 216.754C99.2173 216.232 99.3388 215.77 99.582 215.37C99.8251 214.97 100.268 214.543 100.911 214.091L103.359 212.42ZM107.006 225.526C106.902 229.286 106.815 232.567 106.746 235.369C106.694 238.172 106.668 240.469 106.668 242.262V245.317C106.668 247.353 106.867 248.659 107.267 249.233C107.684 249.79 108.465 250.069 109.611 250.069C109.698 250.069 109.828 250.06 110.002 250.042C110.193 250.025 110.349 250.016 110.471 250.016V252.262C108.873 252.157 107.475 252.079 106.277 252.027C105.079 251.974 104.089 251.948 103.307 251.948C102.647 251.948 101.753 251.974 100.624 252.027C99.5125 252.079 98.1839 252.157 96.6383 252.262V250.016H97.1853C99.4083 250.016 100.528 247.962 100.546 243.855C100.546 243.193 100.546 242.68 100.546 242.314L100.598 236.753V234.456C100.598 232.506 100.442 231.253 100.129 230.696C99.8164 230.139 99.2086 229.86 98.3055 229.86C98.1839 229.86 97.9061 229.878 97.4719 229.913C97.2808 229.93 97.1332 229.947 97.029 229.965L96.6383 227.876C98.4792 227.632 100.251 227.319 101.953 226.936C103.655 226.553 105.339 226.083 107.006 225.526Z" fill="black"/>
<path d="M121.568 221.036L123.861 221.688C123.757 222.663 123.661 223.594 123.574 224.482C123.505 225.352 123.461 226.179 123.444 226.962C125.719 226.962 127.412 226.945 128.524 226.91C129.635 226.875 130.66 226.823 131.598 226.753L130.921 230.33C129.826 230.243 128.645 230.182 127.378 230.148C126.127 230.095 124.816 230.078 123.444 230.095C123.392 232.393 123.349 234.36 123.314 235.996C123.296 237.615 123.288 238.885 123.288 239.808C123.288 243.62 123.557 246.109 124.095 247.275C124.651 248.424 125.624 248.998 127.013 248.998C127.569 248.998 128.203 248.885 128.915 248.659C129.627 248.432 130.434 248.084 131.337 247.614L132.353 249.807C130.443 250.887 128.741 251.705 127.247 252.262C125.754 252.836 124.521 253.123 123.548 253.123C121.325 253.123 119.684 252.427 118.625 251.035C117.565 249.625 117.036 247.449 117.036 244.507C117.036 243.933 117.079 242.044 117.166 238.842C117.27 235.639 117.322 232.715 117.322 230.069C117.288 230.069 116.871 230.087 116.072 230.121C115.29 230.156 114.37 230.191 113.311 230.226V227.719C115.325 227.424 117.01 226.727 118.364 225.631C119.736 224.517 120.804 222.985 121.568 221.036Z" fill="black"/>
<path d="M150.146 239.808C149.764 239.912 149.208 240.069 148.479 240.278C143.512 241.653 141.028 243.28 141.028 245.16C141.028 246.204 141.367 247.083 142.044 247.797C142.721 248.493 143.572 248.841 144.597 248.841C145.257 248.841 146.004 248.676 146.837 248.345C147.688 248.015 148.791 247.449 150.146 246.648V239.808ZM160.54 247.823L161.504 249.807C159.923 250.852 158.499 251.635 157.231 252.157C155.981 252.662 154.861 252.914 153.871 252.914C152.673 252.914 151.752 252.61 151.11 252.001C150.484 251.374 150.12 250.434 150.015 249.181C148.122 250.504 146.525 251.461 145.222 252.053C143.92 252.627 142.747 252.914 141.705 252.914C139.882 252.914 138.328 252.209 137.042 250.8C135.757 249.372 135.115 247.667 135.115 245.682C135.115 242.34 138.84 239.808 146.29 238.085C147.905 237.702 149.173 237.397 150.094 237.171C150.111 236.736 150.12 236.318 150.12 235.918C150.137 235.5 150.146 235.1 150.146 234.717C150.146 232.854 149.781 231.497 149.052 230.644C148.34 229.791 147.193 229.364 145.613 229.364C144.588 229.364 143.703 229.573 142.956 229.991C142.226 230.409 141.836 230.896 141.784 231.453C141.766 231.54 141.758 231.653 141.758 231.792C141.653 233.533 140.559 234.403 138.475 234.403C137.694 234.403 137.094 234.273 136.678 234.012C136.261 233.751 136.052 233.368 136.052 232.863C136.052 231.47 137.329 229.913 139.882 228.189C142.452 226.449 145.144 225.579 147.957 225.579C150.701 225.579 152.785 226.301 154.21 227.746C155.634 229.173 156.346 231.27 156.346 234.038C156.346 234.873 156.276 236.605 156.137 239.233C156.016 241.844 155.955 244.046 155.955 245.839C155.955 246.901 156.094 247.667 156.372 248.136C156.65 248.606 157.084 248.841 157.674 248.841C158.004 248.841 158.412 248.754 158.899 248.58C159.385 248.406 159.932 248.154 160.54 247.823Z" fill="black"/>
<path d="M175.362 228.033C173.782 228.033 172.532 228.59 171.611 229.704C170.691 230.818 170.231 232.349 170.231 234.299C170.231 236.44 170.691 238.119 171.611 239.338C172.532 240.539 173.817 241.139 175.467 241.139C177.099 241.139 178.376 240.6 179.296 239.521C180.217 238.424 180.677 236.892 180.677 234.925C180.677 232.645 180.225 230.931 179.322 229.782C178.436 228.616 177.117 228.033 175.362 228.033ZM170.699 252.679C170.005 253.41 169.492 254.107 169.162 254.768C168.85 255.43 168.694 256.091 168.694 256.752C168.694 258.284 169.38 259.563 170.752 260.59C172.124 261.635 173.869 262.157 175.988 262.157C178.436 262.157 180.486 261.574 182.136 260.408C183.803 259.241 184.636 257.849 184.636 256.23C184.636 254.907 184.133 253.985 183.125 253.463C182.136 252.941 180.095 252.679 177.004 252.679H170.699ZM182.292 227.354C184.289 227.354 185.817 227.337 186.877 227.302C187.953 227.267 188.969 227.206 189.925 227.119L189.846 230.226C189.082 230.139 188.249 230.078 187.346 230.043C186.46 229.991 185.435 229.965 184.272 229.965C185.053 230.678 185.626 231.453 185.991 232.288C186.373 233.107 186.564 234.003 186.564 234.978C186.564 237.397 185.539 239.425 183.49 241.061C181.458 242.68 178.905 243.489 175.831 243.489C175.519 243.489 174.937 243.463 174.086 243.411C173.912 243.393 173.782 243.385 173.695 243.385C173.331 243.611 172.957 243.872 172.575 244.168C172.21 244.446 171.785 244.812 171.299 245.265C171.663 245.804 172.028 246.265 172.393 246.648C172.757 247.031 173.14 247.371 173.539 247.667H181.328C184.124 247.667 186.199 248.189 187.554 249.233C188.909 250.26 189.586 251.844 189.586 253.985C189.586 255.412 189.143 256.866 188.257 258.345C187.389 259.825 186.165 261.147 184.584 262.314C183.108 263.428 181.397 264.298 179.452 264.924C177.507 265.568 175.588 265.89 173.695 265.89C170.673 265.89 168.199 265.194 166.271 263.802C164.361 262.409 163.405 260.669 163.405 258.58C163.405 257.309 163.822 256.1 164.656 254.951C165.489 253.82 166.887 252.566 168.85 251.191C168.068 250.46 167.426 249.72 166.922 248.972C166.419 248.206 166.01 247.379 165.698 246.492C166.34 245.83 167.087 245.195 167.938 244.586C168.789 243.976 169.744 243.385 170.804 242.81C168.633 242.271 166.974 241.348 165.828 240.043C164.699 238.72 164.135 237.058 164.135 235.056C164.135 232.428 165.22 230.191 167.391 228.346C169.562 226.501 172.219 225.579 175.362 225.579C176.769 225.579 178.011 225.718 179.088 225.996C180.182 226.275 181.25 226.727 182.292 227.354Z" fill="black"/>
<path d="M217.147 238.346L206.284 238.372C204.426 238.372 203.037 238.389 202.116 238.424C201.196 238.441 200.345 238.494 199.563 238.581C199.563 241.696 200.327 244.142 201.856 245.917C203.401 247.693 205.529 248.58 208.238 248.58C209.541 248.58 210.826 248.38 212.093 247.98C213.379 247.562 214.672 246.935 215.975 246.1L217.147 248.345C215.133 249.947 213.153 251.148 211.208 251.948C209.263 252.732 207.335 253.123 205.425 253.123C201.795 253.123 198.816 251.914 196.489 249.494C194.162 247.057 192.999 243.933 192.999 240.121C192.999 235.979 194.258 232.523 196.776 229.756C199.294 226.971 202.385 225.579 206.05 225.579C209.332 225.579 211.989 226.745 214.021 229.077C216.053 231.392 217.095 234.482 217.147 238.346ZM210.973 235.16C210.609 233.124 209.94 231.54 208.967 230.409C208.012 229.26 206.866 228.685 205.529 228.685C203.931 228.685 202.611 229.303 201.569 230.539C200.527 231.775 199.876 233.507 199.615 235.735H201.257C203.393 235.735 205.251 235.691 206.831 235.604C208.412 235.5 209.792 235.352 210.973 235.16Z" fill="black"/>
<path d="M254.66 221.088L248.981 235.526C249.641 235.543 250.335 235.561 251.065 235.578C251.812 235.578 252.802 235.578 254.035 235.578C255.459 235.578 256.57 235.578 257.369 235.578C258.168 235.561 258.915 235.543 259.609 235.526L254.66 221.088ZM253.227 214.822H259.583C262.084 222.167 264.463 228.92 266.721 235.082C268.996 241.226 270.585 245.317 271.488 247.353C271.87 248.276 272.348 248.937 272.921 249.337C273.512 249.72 274.293 249.912 275.266 249.912H275.839V252.262C273.633 252.157 271.94 252.088 270.759 252.053C269.578 252.018 268.588 252.001 267.789 252.001C267.025 252.001 266.035 252.018 264.819 252.053C263.604 252.088 261.841 252.157 259.531 252.262V249.912H260C261.372 249.912 262.301 249.755 262.788 249.442C263.274 249.129 263.517 248.572 263.517 247.771C263.517 247.527 263.482 247.24 263.413 246.909C263.361 246.579 263.239 246.117 263.048 245.526L260.912 239.207C259.922 239.19 258.619 239.172 257.004 239.155C255.389 239.12 254.382 239.103 253.982 239.103C253.236 239.103 251.733 239.129 249.476 239.181C248.66 239.199 248.026 239.207 247.574 239.207L247.47 239.468C245.768 243.628 244.917 246.257 244.917 247.353C244.917 248.258 245.169 248.911 245.672 249.311C246.193 249.712 247.044 249.912 248.225 249.912H248.694V252.262C246.714 252.157 245.177 252.088 244.083 252.053C242.989 252.018 242.086 252.001 241.374 252.001C240.784 252.001 240.002 252.018 239.03 252.053C238.074 252.088 236.676 252.157 234.835 252.262V249.912C236.086 249.912 237.084 249.694 237.831 249.259C238.578 248.824 239.212 248.093 239.733 247.066C240.48 245.708 242.164 241.914 244.787 235.683C247.409 229.451 250.223 222.498 253.227 214.822Z" fill="black"/>
<path d="M298.06 226.858C298.06 227.954 298.112 229.068 298.216 230.2C298.32 231.314 298.485 232.445 298.711 233.594L296.132 234.09C295.924 232.158 295.35 230.748 294.413 229.86C293.475 228.973 292.112 228.529 290.323 228.529C288.916 228.529 287.77 228.886 286.884 229.599C286.016 230.296 285.582 231.201 285.582 232.315C285.582 233.864 287.605 235.256 291.651 236.492L291.834 236.544C294.855 237.467 296.913 238.485 298.008 239.599C299.119 240.713 299.675 242.227 299.675 244.142C299.675 246.718 298.589 248.85 296.419 250.539C294.248 252.227 291.452 253.071 288.03 253.071C286.641 253.071 285.269 252.932 283.914 252.653C282.577 252.392 281.283 251.992 280.033 251.452C280.05 251.261 280.059 251.043 280.059 250.8C280.076 250.556 280.085 250.19 280.085 249.703C280.085 248.728 280.042 247.762 279.955 246.805C279.868 245.848 279.738 244.908 279.564 243.985L281.961 243.385C282.36 245.769 283.098 247.501 284.175 248.58C285.252 249.642 286.771 250.173 288.734 250.173C290.401 250.173 291.721 249.799 292.693 249.05C293.683 248.302 294.178 247.284 294.178 245.996C294.178 244.464 292.033 242.976 287.744 241.531C287.032 241.287 286.485 241.105 286.103 240.983C284.036 240.269 282.551 239.39 281.648 238.346C280.745 237.284 280.293 235.918 280.293 234.247C280.293 231.653 281.266 229.564 283.211 227.981C285.156 226.379 287.761 225.579 291.026 225.579C291.999 225.579 293.058 225.683 294.204 225.892C295.368 226.101 296.653 226.423 298.06 226.858Z" fill="black"/>
<path d="M323.745 226.858C323.745 227.954 323.797 229.068 323.902 230.2C324.006 231.314 324.171 232.445 324.397 233.594L321.818 234.09C321.609 232.158 321.036 230.748 320.098 229.86C319.16 228.973 317.797 228.529 316.008 228.529C314.602 228.529 313.455 228.886 312.57 229.599C311.701 230.296 311.267 231.201 311.267 232.315C311.267 233.864 313.29 235.256 317.337 236.492L317.519 236.544C320.541 237.467 322.599 238.485 323.693 239.599C324.805 240.713 325.36 242.227 325.36 244.142C325.36 246.718 324.275 248.85 322.104 250.539C319.933 252.227 317.137 253.071 313.716 253.071C312.327 253.071 310.955 252.932 309.6 252.653C308.263 252.392 306.969 251.992 305.719 251.452C305.736 251.261 305.745 251.043 305.745 250.8C305.762 250.556 305.771 250.19 305.771 249.703C305.771 248.728 305.727 247.762 305.64 246.805C305.554 245.848 305.423 244.908 305.25 243.985L307.646 243.385C308.046 245.769 308.784 247.501 309.861 248.58C310.937 249.642 312.457 250.173 314.419 250.173C316.087 250.173 317.406 249.799 318.379 249.05C319.369 248.302 319.864 247.284 319.864 245.996C319.864 244.464 317.719 242.976 313.429 241.531C312.717 241.287 312.17 241.105 311.788 240.983C309.722 240.269 308.237 239.39 307.334 238.346C306.431 237.284 305.979 235.918 305.979 234.247C305.979 231.653 306.952 229.564 308.897 227.981C310.842 226.379 313.447 225.579 316.712 225.579C317.684 225.579 318.744 225.683 319.89 225.892C321.053 226.101 322.339 226.423 323.745 226.858Z" fill="black"/>
<path d="M354.068 238.346L343.205 238.372C341.347 238.372 339.957 238.389 339.037 238.424C338.116 238.441 337.266 238.494 336.484 238.581C336.484 241.696 337.248 244.142 338.776 245.917C340.322 247.693 342.45 248.58 345.159 248.58C346.461 248.58 347.746 248.38 349.014 247.98C350.299 247.562 351.593 246.935 352.896 246.1L354.068 248.345C352.053 249.947 350.074 251.148 348.129 251.948C346.183 252.732 344.256 253.123 342.345 253.123C338.716 253.123 335.737 251.914 333.41 249.494C331.083 247.057 329.919 243.933 329.919 240.121C329.919 235.979 331.178 232.523 333.697 229.756C336.215 226.971 339.306 225.579 342.971 225.579C346.253 225.579 348.91 226.745 350.942 229.077C352.974 231.392 354.016 234.482 354.068 238.346ZM347.894 235.16C347.529 233.124 346.861 231.54 345.888 230.409C344.933 229.26 343.787 228.685 342.45 228.685C340.852 228.685 339.532 229.303 338.49 230.539C337.448 231.775 336.797 233.507 336.536 235.735H338.177C340.313 235.735 342.172 235.691 343.752 235.604C345.332 235.5 346.713 235.352 347.894 235.16Z" fill="black"/>
<path d="M367.692 225.579C367.623 226.136 367.545 227.049 367.458 228.32C367.423 228.912 367.397 229.347 367.38 229.625C369.498 228.163 371.261 227.128 372.668 226.518C374.075 225.892 375.368 225.579 376.549 225.579C378.147 225.579 379.51 225.944 380.639 226.675C381.768 227.389 382.68 228.485 383.375 229.965C385.493 228.398 387.308 227.276 388.819 226.597C390.33 225.918 391.737 225.579 393.039 225.579C395.471 225.579 397.346 226.397 398.666 228.033C400.003 229.669 400.672 232.01 400.672 235.056V237.301L400.568 243.855C400.568 243.976 400.559 244.333 400.542 244.925C400.524 245.5 400.516 246.022 400.516 246.492C400.516 247.971 400.707 248.937 401.089 249.39C401.488 249.842 402.252 250.069 403.381 250.069H404.033V252.262C402.643 252.157 401.384 252.079 400.255 252.027C399.144 251.974 398.163 251.948 397.312 251.948C396.704 251.948 395.879 251.974 394.837 252.027C393.812 252.079 392.588 252.157 391.164 252.262L391.19 250.069C391.277 250.086 391.381 250.103 391.502 250.121C391.624 250.121 391.798 250.121 392.023 250.121C393.083 250.121 393.786 249.773 394.133 249.076C394.498 248.363 394.681 246.587 394.681 243.75V240.826C394.681 240.217 394.689 239.416 394.707 238.424C394.741 237.414 394.759 236.718 394.759 236.335C394.759 234.177 394.385 232.593 393.638 231.584C392.892 230.574 391.728 230.069 390.148 230.069C389.401 230.069 388.524 230.261 387.517 230.644C386.509 231.009 385.381 231.566 384.13 232.315L384.026 244.351C384.026 245.151 384.009 245.935 383.974 246.701C383.974 246.788 383.974 246.84 383.974 246.857C383.974 248.197 384.139 249.068 384.469 249.468C384.799 249.868 385.45 250.069 386.423 250.069H387.074V252.262C385.702 252.157 384.451 252.079 383.323 252.027C382.211 251.974 381.221 251.948 380.353 251.948C379.867 251.948 379.154 251.974 378.217 252.027C377.279 252.079 376.124 252.157 374.752 252.262V250.069C374.856 250.086 374.969 250.103 375.091 250.121C375.212 250.121 375.377 250.121 375.586 250.121C376.576 250.121 377.244 249.755 377.591 249.024C377.939 248.293 378.112 246.666 378.112 244.142V236.231C378.112 234.073 377.748 232.506 377.018 231.531C376.306 230.557 375.177 230.069 373.632 230.069C372.85 230.069 371.956 230.252 370.949 230.618C369.941 230.966 368.821 231.497 367.588 232.21C367.571 232.785 367.553 233.611 367.536 234.69C367.432 239.651 367.38 243.063 367.38 244.925C367.38 247.327 367.545 248.789 367.875 249.311C368.222 249.816 368.925 250.069 369.985 250.069H370.74V252.262C369.247 252.157 367.927 252.079 366.781 252.027C365.652 251.974 364.697 251.948 363.915 251.948C363.151 251.948 361.649 252.018 359.408 252.157C358.644 252.209 358.071 252.244 357.689 252.262L357.663 250.069H358.314C360.45 250.069 361.527 247.928 361.544 243.646C361.562 243.124 361.57 242.715 361.57 242.419V234.612C361.57 232.628 361.414 231.34 361.102 230.748C360.806 230.156 360.251 229.86 359.434 229.86C359.313 229.86 359.148 229.878 358.939 229.913C358.731 229.93 358.488 229.965 358.21 230.017L357.976 227.981C359.226 227.737 360.572 227.441 362.013 227.093C363.455 226.727 365.348 226.223 367.692 225.579Z" fill="black"/>
<path d="M416.302 248.241C417.032 248.659 417.761 248.972 418.491 249.181C419.22 249.39 419.967 249.494 420.731 249.494C423.214 249.494 425.168 248.659 426.592 246.988C428.016 245.317 428.728 243.028 428.728 240.121C428.728 237.04 428.042 234.586 426.67 232.758C425.316 230.931 423.492 230.017 421.2 230.017C420.366 230.017 419.515 230.156 418.647 230.435C417.796 230.713 416.91 231.14 415.99 231.714C415.972 232.671 415.955 233.646 415.938 234.638C415.938 235.63 415.938 236.91 415.938 238.476C415.938 241.696 415.964 244.003 416.016 245.395C416.068 246.77 416.163 247.719 416.302 248.241ZM416.302 211.793C416.163 215.013 416.059 218.042 415.99 220.879C415.92 223.716 415.885 226.405 415.885 228.947C417.396 227.85 418.82 227.041 420.158 226.518C421.495 225.996 422.824 225.735 424.143 225.735C427.27 225.735 429.909 226.936 432.063 229.338C434.216 231.74 435.293 234.708 435.293 238.241C435.293 242.523 433.799 246.03 430.812 248.763C427.843 251.496 423.944 252.862 419.116 252.862C417.466 252.862 415.842 252.74 414.244 252.497C412.647 252.253 411.092 251.887 409.581 251.4C409.686 245.517 409.764 240.678 409.816 236.884C409.868 233.089 409.894 230.339 409.894 228.633V225.317C409.894 221.366 409.72 218.842 409.373 217.746C409.026 216.632 408.366 216.075 407.393 216.075C407.324 216.075 407.193 216.092 407.002 216.127C406.829 216.145 406.586 216.171 406.273 216.205L406.065 214.038C407.749 213.795 409.434 213.49 411.118 213.125C412.82 212.759 414.548 212.315 416.302 211.793Z" fill="black"/>
<path d="M448.735 211.845C448.613 215.083 448.527 218.172 448.475 221.114C448.422 224.056 448.396 226.867 448.396 229.547V241.139C448.396 243.802 448.44 245.665 448.527 246.727C448.613 247.771 448.744 248.485 448.917 248.868C449.091 249.25 449.412 249.538 449.881 249.729C450.35 249.921 450.958 250.016 451.705 250.016H452.304V252.262C450.637 252.157 449.187 252.079 447.953 252.027C446.738 251.974 445.731 251.948 444.932 251.948C444.202 251.948 443.282 251.974 442.17 252.027C441.059 252.079 439.756 252.157 438.263 252.262V250.016C438.35 250.016 438.48 250.025 438.654 250.042C438.845 250.06 438.983 250.069 439.07 250.069C441.224 250.069 442.301 247.371 442.301 241.975C442.318 241.105 442.327 240.434 442.327 239.964L442.379 228.033V220.983C442.379 219.034 442.222 217.737 441.91 217.093C441.615 216.449 441.059 216.127 440.243 216.127C440.017 216.127 439.774 216.145 439.513 216.179C439.253 216.197 439.001 216.232 438.758 216.284L438.471 214.195C440.329 213.899 442.101 213.56 443.785 213.177C445.487 212.794 447.137 212.35 448.735 211.845Z" fill="black"/>
<path d="M454.023 226.388C455.465 226.492 456.689 226.571 457.696 226.623C458.721 226.675 459.563 226.701 460.223 226.701C461.404 226.701 462.542 226.675 463.636 226.623C464.73 226.571 465.833 226.492 466.944 226.388V228.685H466.345C465.494 228.685 464.878 228.807 464.495 229.051C464.131 229.295 463.948 229.686 463.948 230.226C463.948 230.87 464.626 232.985 465.98 236.57C467.335 240.139 468.438 243.141 469.289 245.578C469.688 244.603 470.244 243.245 470.956 241.505C473.752 234.769 475.15 230.94 475.15 230.017C475.15 229.564 474.985 229.225 474.655 228.999C474.343 228.755 473.865 228.633 473.222 228.633H472.363V226.388C473.37 226.492 474.308 226.571 475.176 226.623C476.062 226.675 476.869 226.701 477.599 226.701C478.241 226.701 479.466 226.632 481.272 226.492C481.845 226.44 482.271 226.405 482.548 226.388L482.574 228.685H482.132C481.506 228.685 480.977 228.842 480.543 229.155C480.108 229.469 479.665 230.061 479.214 230.931C479.214 230.931 478.45 232.628 476.922 236.022C475.393 239.416 473.839 242.889 472.258 246.439C471.651 247.832 470.817 249.738 469.758 252.157C465.659 261.539 462.568 266.23 460.484 266.23C459.615 266.23 458.895 265.96 458.322 265.421C457.766 264.898 457.488 264.237 457.488 263.436C457.488 262.287 458.287 261.565 459.885 261.269C460.51 261.165 460.935 261.052 461.161 260.93C462.012 260.495 463.254 258.563 464.886 255.134C465.32 254.194 465.668 253.471 465.928 252.967C465.355 251.557 464.192 248.65 462.438 244.246C460.683 239.825 459.19 236.092 457.957 233.046C457.887 232.854 457.774 232.576 457.618 232.21C456.698 229.86 455.621 228.685 454.388 228.685H454.023V226.388Z" fill="black"/>
</svg>
