<svg width="430" height="932" viewBox="0 0 430 932" fill="none" xmlns="http://www.w3.org/2000/svg">
<path d="M-153.071 -406.112C-81.8487 -430.25 -31.9635 -421.404 7.33977 -393.244C46.6936 -365.048 75.5059 -317.448 104.452 -263.895C109.337 -254.857 114.225 -245.651 119.168 -236.341C172.757 -135.412 232.772 -22.3785 364.804 18.9766C498.334 60.8006 605.507 -2.01206 699.857 -57.3097C707.415 -61.7394 714.891 -66.1209 722.292 -70.3966C772.227 -99.2464 818.689 -123.255 863.917 -124.951C909.076 -126.645 953.107 -106.089 998.176 -45.5174C1088.45 75.8109 1138.42 150.802 1166.36 233.238C1194.3 315.674 1200.22 405.591 1202.31 556.807C1204.4 708.023 1200.97 798.046 1175.32 881.092C1149.67 964.137 1101.79 1040.24 1014.9 1163.58C971.489 1225.2 932.009 1255.18 892.792 1267.06C853.566 1278.94 814.515 1272.75 771.877 1261.84C760.941 1259.05 749.771 1255.94 738.307 1252.75C660.399 1231.09 568.878 1205.63 444.349 1247.84C323.641 1288.75 254.392 1365.28 193.008 1433.12C181.758 1445.55 170.772 1457.69 159.781 1469.27C124.291 1506.65 88.7745 1538.13 44.1827 1554.66C-0.393354 1571.18 -54.1019 1572.78 -126.011 1550.25C-269.992 1505.16 -354.273 1473.84 -425.129 1423.5C-495.984 1373.17 -553.445 1303.78 -643.722 1182.45C-688.832 1121.83 -706.526 1076.75 -707.837 1038.53C-709.148 1000.32 -694.087 968.868 -673.46 935.464C-668.117 926.812 -662.403 918.031 -656.507 908.972C-616.874 848.077 -569.05 774.595 -570.873 642.815C-572.586 518.936 -617.04 425.503 -656.996 341.525C-665.854 322.907 -674.491 304.754 -682.392 286.837C-704.169 237.455 -720.358 189.873 -720.275 139.254C-720.191 88.6478 -703.842 34.9525 -660.445 -26.6491C-573.552 -149.993 -518.028 -220.664 -448.588 -272.598C-379.147 -324.532 -295.759 -357.753 -153.071 -406.112Z" stroke="white"/>
<path d="M-86.7091 -224.282C-40.5644 -239.762 -13.1133 -248.169 4.4824 -249.933C13.2678 -250.814 19.5343 -250.031 24.4229 -247.69C29.3051 -245.353 32.8788 -241.429 36.2183 -235.892C39.1422 -231.044 41.8669 -224.987 45.1191 -217.759C56.7714 -191.86 75.1947 -150.911 133.811 -96.5461C169.296 -63.6354 185.666 -33.0105 199.896 -6.38924C200.659 -4.96218 201.416 -3.54663 202.169 -2.14283C216.977 25.4577 230.44 48.5559 262.444 64.9062C294.409 81.237 344.818 90.812 433.45 91.6048C522.095 92.3979 649.04 84.4051 834.127 65.5473C926.657 56.1198 998.541 52.842 1053.5 54.7891C1108.48 56.7365 1146.48 63.9098 1171.27 75.3518C1196.04 86.7809 1207.59 102.443 1209.78 121.408C1211.98 140.433 1204.78 162.885 1191.77 187.895C1178.77 212.892 1160.02 240.364 1139.21 269.407C1132.97 278.113 1126.55 286.961 1120.04 295.925C1104.85 316.85 1089.2 338.405 1074.38 360.263C1032.05 422.685 996.36 487.732 997.242 547.968C997.502 565.721 997.831 582.896 998.151 599.528C999.991 695.479 1001.48 773.34 987.306 839.464C970.683 916.99 932.516 978.37 847.999 1033.76C763.624 1089.05 689.949 1058.6 608.651 1023.81L605.736 1022.56C525.264 988.107 437.235 950.417 324.377 988.666C211.234 1027.01 163.754 1110.82 120.439 1187.28L119.201 1189.46C75.5261 1266.54 35.545 1335.51 -63.9343 1342.82C-263.174 1357.48 -395.186 1216.44 -477.733 1047.95C-498.352 1005.87 -504.783 974.674 -502.937 947.365C-501.089 920.046 -490.955 896.556 -478.325 869.848C-477.008 867.063 -475.664 864.244 -474.3 861.383C-449.494 809.339 -418.026 743.32 -419.896 615.661C-421.641 496.547 -451.416 416.733 -477.217 347.574C-480.584 338.548 -483.884 329.704 -487.044 320.977C-500.734 283.18 -511.813 247.611 -514.542 209.061C-517.271 170.52 -511.655 128.973 -491.914 79.2297C-452.42 -20.2861 -397.236 -80.68 -328.893 -123.934C-264.238 -164.853 -187.801 -190.439 -101.654 -219.276C-96.7045 -220.933 -91.7226 -222.6 -86.7091 -224.282Z" stroke="white"/>
<path d="M-29.8003 -83.6937C55.5546 -79.9444 94.1844 -25.9868 133.645 34.1645C135.298 36.6849 136.953 39.2161 138.613 41.7549C176.547 99.7775 217.053 161.736 301.979 188.288C388.36 215.295 454.566 185.22 515.476 157.551C517.076 156.824 518.673 156.099 520.266 155.376C551.401 141.256 581.216 128.193 611.795 124.134C642.345 120.078 673.673 125.008 707.829 146.927C758.426 179.396 804.018 186.949 841.411 193.144C854.719 195.348 866.988 197.381 878.074 200.303C899.199 205.872 916.055 214.656 927.82 233.944C939.606 253.266 946.325 283.196 946.973 331.161C948.269 427.078 926.172 556.082 886.196 670.286C866.209 727.385 841.757 780.769 813.537 824.459C785.313 868.155 753.342 902.118 718.331 920.429C683.286 938.757 653.638 944.291 625.944 943.292C598.702 942.309 573.33 935.006 546.507 927.285L545.115 926.885C490.432 911.149 429.7 894.175 335.486 926.105C241.291 958.029 191.631 1011.86 146.785 1061.05L145.595 1062.35C101.227 1111.02 61.2878 1154.82 -12.9369 1168.26C-87.8999 1181.84 -175.301 1169.34 -252.211 1136.62C-329.124 1103.91 -395.481 1051.01 -428.426 983.852C-444.873 950.322 -444.751 922.3 -435.385 895.754C-426.004 869.167 -407.349 844.044 -386.657 816.329L-386.067 815.539C-344.826 760.303 -295.951 694.843 -297.399 587.655C-298.735 488.777 -337.405 409.368 -372.62 337.052C-375.744 330.636 -378.841 324.276 -381.883 317.963C-419.225 240.455 -448.144 170.119 -416.454 90.7105C-384.731 11.2189 -330.874 -34.2442 -263.564 -58.9107C-196.227 -83.5871 -115.413 -87.4544 -29.8003 -83.6937Z" stroke="white"/>
<path d="M-222.373 -18.5293C-186.039 -30.8436 -146.02 -23.2711 -104.065 -4.1728C-62.1113 14.9245 -18.293 45.5134 25.6015 79.1228C43.9651 93.1836 62.349 107.779 80.6122 122.278C105.977 142.416 131.109 162.368 155.631 180.447C197.816 211.55 238.292 237.185 275.23 248.793C349.005 271.976 402.129 273.292 450.85 264.04C485.134 257.53 517.246 245.781 552.807 232.77C567.736 227.309 583.271 221.625 599.83 216.013C655.721 197.07 727.559 209.32 785.718 245.684C843.865 282.04 888.263 342.453 889.377 419.763C890.49 497.076 842.511 569.326 783.026 638.12C760.677 663.967 736.722 689.306 713.158 714.231C705.37 722.47 697.624 730.663 689.993 738.814C659.283 771.62 630.433 803.747 608.193 835.379C597.119 851.13 585.815 860.84 574.247 865.915C562.685 870.986 550.815 871.447 538.564 868.617C514.015 862.948 488.016 844.093 460.12 822.74C457.537 820.763 454.938 818.764 452.323 816.754C426.736 797.08 399.601 776.216 370.681 762.298C338.788 746.95 304.671 740.023 268.001 752.451C231.335 764.878 206.982 791.616 188.773 823.934C172.716 852.432 161.412 885.316 150.655 916.609C149.219 920.788 147.792 924.938 146.365 929.046C134.238 963.956 122.103 995.75 103.836 1015.94C94.7158 1026.02 84.0792 1033.19 71.1613 1036.42C58.24 1039.64 42.9905 1038.93 24.6279 1033.16C-43.8432 1011.64 -93.8152 1040.99 -136.772 1066.22C-140.209 1068.23 -143.602 1070.23 -146.956 1072.16C-169.622 1085.26 -190.444 1095.83 -211.339 1095.43C-232.18 1095.04 -253.223 1083.71 -276.293 1052.67C-299.324 1021.68 -306.169 985.64 -303.489 946.541C-300.809 907.43 -288.601 865.294 -273.556 822.158C-267.34 804.334 -260.635 786.33 -253.921 768.301C-244.4 742.733 -234.861 717.117 -226.671 691.9C-212.699 648.881 -202.614 606.911 -203.173 568.069C-204.089 504.507 -226.898 456.541 -247.376 413.478C-251.913 403.935 -256.337 394.634 -260.382 385.456C-271.539 360.143 -279.823 335.785 -279.796 309.887C-279.768 284.003 -271.438 256.531 -249.268 224.998C-226.974 193.29 -223.263 165.214 -227.987 140.172C-232.527 116.103 -244.856 94.8666 -255.831 75.9621C-256.258 75.2251 -256.684 74.4916 -257.107 73.7617C-262.754 64.0214 -267.934 54.917 -271.399 46.3429C-274.864 37.7694 -276.593 29.7785 -275.39 22.2604C-272.992 7.27305 -258.867 -6.16113 -222.373 -18.5293Z" stroke="white"/>
</svg>
